<svg id="Capa_1" data-name="Capa 1" xmlns="http://www.w3.org/2000/svg" viewBox="0 0 1200 1200"><defs><style>.cls-1,.cls-2{fill:#fff;}.cls-2{font-size:128.38px;font-family:Helvetica;}</style></defs><g id="LOGO"><path class="cls-1" d="M161,634.2l-8.58-12.52h8.18l4.59,6.89,4.55-6.89h7.92L169,634l9.64,14.06h-8.18L165,639.77l-5.45,8.33h-8Z"/><path class="cls-1" d="M212.64,632.46H187.15V627h25.49Zm0,10.94H187.15v-5.47h25.49Z"/><path class="cls-1" d="M232.18,617.59H225v-6h7.17ZM225,621.68h7.17V648.1H225Z"/><path class="cls-1" d="M236.82,621.68h6.82v3.67h.15a9.29,9.29,0,0,1,8-4.39c7.62,0,9.54,4.34,9.54,10.89V648.1h-7.17V633.17c0-4.34-1.26-6.49-4.59-6.49-3.89,0-5.56,2.2-5.56,7.57V648.1h-7.17Z"/><path class="cls-1" d="M284.38,644.72h-.1c-1.67,2.87-4.6,4.09-7.93,4.09-7.88,0-11.71-6.85-11.71-14.15,0-7.11,3.88-13.7,11.56-13.7A9.07,9.07,0,0,1,284,624.9h0V611.61h7.17V648.1h-6.81Zm-6.26-18.29c-4.7,0-6.31,4.09-6.31,8.43,0,4.14,1.86,8.48,6.31,8.48,4.74,0,6.16-4.19,6.16-8.53S282.76,626.43,278.12,626.43Z"/><path class="cls-1" d="M301.49,636.65c.2,4.6,2.42,6.69,6.41,6.69,2.88,0,5.2-1.78,5.65-3.42h6.31c-2,6.24-6.31,8.89-12.21,8.89-8.23,0-13.33-5.72-13.33-13.9,0-7.92,5.4-13.95,13.33-13.95,8.88,0,13.17,7.56,12.67,15.69Zm11.66-4.6c-.66-3.68-2.22-5.62-5.71-5.62a5.68,5.68,0,0,0-5.95,5.62Z"/><path class="cls-1" d="M323.55,621.68h6.81v3.37h.1a8.67,8.67,0,0,1,7.78-4.09c8.18,0,11.86,6.7,11.86,14.21,0,7.05-3.83,13.64-11.46,13.64a9.22,9.22,0,0,1-7.82-4h-.1V657.4h-7.17ZM342.93,635c0-4.19-1.66-8.53-6.26-8.53s-6.21,4.24-6.21,8.53,1.62,8.38,6.26,8.38S342.93,639.26,342.93,635Z"/><path class="cls-1" d="M359.29,636.65c.2,4.6,2.42,6.69,6.41,6.69,2.88,0,5.2-1.78,5.65-3.42h6.31c-2,6.24-6.31,8.89-12.21,8.89-8.23,0-13.33-5.72-13.33-13.9,0-7.92,5.4-13.95,13.33-13.95,8.88,0,13.17,7.56,12.67,15.69Zm11.66-4.6c-.66-3.68-2.22-5.62-5.71-5.62a5.68,5.68,0,0,0-5.95,5.62Z"/><path class="cls-1" d="M381.35,621.68h6.81v3.67h.15a9.29,9.29,0,0,1,8-4.39c7.62,0,9.54,4.34,9.54,10.89V648.1h-7.17V633.17c0-4.34-1.26-6.49-4.59-6.49-3.89,0-5.55,2.2-5.55,7.57V648.1h-7.17Z"/><path class="cls-1" d="M428.9,644.72h-.1c-1.67,2.87-4.59,4.09-7.93,4.09-7.87,0-11.71-6.85-11.71-14.15,0-7.11,3.89-13.7,11.56-13.7a9.1,9.1,0,0,1,7.78,3.94h.05V611.61h7.17V648.1H428.9Zm-6.26-18.29c-4.7,0-6.31,4.09-6.31,8.43,0,4.14,1.87,8.48,6.31,8.48,4.75,0,6.16-4.19,6.16-8.53S427.28,626.43,422.64,626.43Z"/><path class="cls-1" d="M446,636.65c.2,4.6,2.42,6.69,6.41,6.69,2.88,0,5.2-1.78,5.66-3.42h6.31c-2,6.24-6.31,8.89-12.22,8.89-8.23,0-13.33-5.72-13.33-13.9,0-7.92,5.4-13.95,13.33-13.95,8.89,0,13.18,7.56,12.67,15.69Zm11.66-4.6c-.65-3.68-2.22-5.62-5.7-5.62a5.68,5.68,0,0,0-6,5.62Z"/><path class="cls-1" d="M468.07,621.68h6.82v3.67H475a9.28,9.28,0,0,1,8-4.39c7.63,0,9.55,4.34,9.55,10.89V648.1h-7.17V633.17c0-4.34-1.27-6.49-4.6-6.49-3.88,0-5.55,2.2-5.55,7.57V648.1h-7.17Z"/><path class="cls-1" d="M506.08,621.68h5.25v4.85h-5.25v13.08c0,2.46.61,3.07,3,3.07a11,11,0,0,0,2.22-.2v5.67a27.69,27.69,0,0,1-4.19.25c-4.39,0-8.23-1-8.23-6.28V626.53h-4.34v-4.85h4.34v-7.93h7.17Z"/><path class="cls-1" d="M514,611.61h7.17V648.1H514Z"/><path class="cls-1" d="M538.64,651.42c-1.56,4.24-4,6-9,6a40.57,40.57,0,0,1-4.4-.26v-6a36.25,36.25,0,0,0,4.19.26c2.48-.26,3.29-2.86,2.48-5l-9.19-24.78h7.67l5.91,18.09h.1l5.71-18.09h7.42Z"/><path class="cls-1" d="M576.65,621c8.23,0,13.53,5.52,13.53,13.95s-5.3,13.9-13.53,13.9-13.47-5.52-13.47-13.9S568.48,621,576.65,621Zm0,22.38c4.9,0,6.36-4.24,6.36-8.43s-1.46-8.48-6.36-8.48-6.31,4.24-6.31,8.48S571.81,643.34,576.65,643.34Z"/><path class="cls-1" d="M592.81,621.68h6.81v4.9h.1a9.24,9.24,0,0,1,8.33-5.62,5.12,5.12,0,0,1,1.57.26V628a13.28,13.28,0,0,0-2.58-.25c-5.25,0-7.06,3.83-7.06,8.48V648.1h-7.17Z"/><path class="cls-1" d="M636.52,646.41c0,4.34-1.51,11.7-13.53,11.7-5.15,0-11.15-2.45-11.51-8.48h7.12c.66,2.71,2.83,3.63,5.35,3.63,4,0,5.81-2.76,5.76-6.54v-3.48h-.1a8.8,8.8,0,0,1-7.83,4.09c-7.82,0-11.15-6-11.15-13.29,0-6.85,3.88-13.08,11.2-13.08,3.44,0,6.06,1.18,7.78,4.24h.1v-3.52h6.81Zm-6.81-11.86c0-4.29-1.47-8.12-6.11-8.12-4,0-5.81,3.58-5.81,7.51,0,3.78,1.42,7.92,5.81,7.92C627.69,641.86,629.71,638.34,629.71,634.55Z"/><path class="cls-1" d="M640,629.8c.41-6.8,6.42-8.84,12.27-8.84,5.2,0,11.46,1.18,11.46,7.51v13.75c0,2.4.25,4.8.91,5.88h-7.27a11.05,11.05,0,0,1-.5-2.56,11.92,11.92,0,0,1-8.79,3.27c-4.95,0-8.88-2.5-8.88-7.92,0-6,4.44-7.41,8.88-8s8.48-.51,8.48-3.48-2.12-3.57-4.64-3.57c-2.73,0-4.49,1.12-4.75,4Zm16.56,5.37c-1.21,1.07-3.73,1.12-6,1.53s-4.24,1.23-4.24,3.88,2.07,3.38,4.39,3.38c5.6,0,5.8-4.5,5.8-6.08Z"/><path class="cls-1" d="M668.22,621.68H675v3.67h.15a9.29,9.29,0,0,1,8-4.39c7.62,0,9.54,4.34,9.54,10.89V648.1h-7.17V633.17c0-4.34-1.26-6.49-4.59-6.49-3.89,0-5.56,2.2-5.56,7.57V648.1h-7.17Z"/><path class="cls-1" d="M703.51,617.59h-7.17v-6h7.17Zm-7.17,4.09h7.17V648.1h-7.17Z"/><path class="cls-1" d="M706.54,642.63l13.58-15.49H707.55v-5.46h22v5.46L716,642.63h14.54v5.47h-24Z"/><path class="cls-1" d="M739.25,636.65c.2,4.6,2.42,6.69,6.41,6.69,2.88,0,5.2-1.78,5.65-3.42h6.32c-2,6.24-6.32,8.89-12.22,8.89-8.23,0-13.33-5.72-13.33-13.9,0-7.92,5.4-13.95,13.33-13.95,8.88,0,13.17,7.56,12.67,15.69Zm11.66-4.6c-.66-3.68-2.22-5.62-5.7-5.62a5.68,5.68,0,0,0-6,5.62Z"/><path class="cls-1" d="M779.94,644.72h-.1c-1.67,2.87-4.6,4.09-7.93,4.09-7.88,0-11.71-6.85-11.71-14.15,0-7.11,3.89-13.7,11.56-13.7a9.07,9.07,0,0,1,7.77,3.94h.05V611.61h7.17V648.1h-6.81Zm-6.26-18.29c-4.7,0-6.31,4.09-6.31,8.43,0,4.14,1.87,8.48,6.31,8.48,4.74,0,6.16-4.19,6.16-8.53S778.32,626.43,773.68,626.43Z"/><path class="cls-1" d="M812.9,618.35H802.1v-6.74h29.53v6.74h-10.8V648.1H812.9Z"/><path class="cls-1" d="M834.76,611.61h27v6.74h-19v7.82h17.47v6.24H842.68v8.94h19.44v6.75H834.76Z"/><path class="cls-1" d="M865.45,611.61H881c9.34,0,16.35,5.93,16.35,18,0,10.58-5.35,18.45-16.35,18.45H865.45Zm7.93,29.74h7.06c4.6,0,9-2.86,9-10.94,0-7.35-2.52-12.06-10.4-12.06h-5.65Z"/><path class="cls-1" d="M920,636.65c.2,4.6,2.42,6.69,6.41,6.69,2.88,0,5.2-1.78,5.65-3.42h6.31c-2,6.24-6.31,8.89-12.21,8.89-8.23,0-13.33-5.72-13.33-13.9,0-7.92,5.4-13.95,13.33-13.95,8.88,0,13.17,7.56,12.67,15.69Zm11.66-4.6c-.66-3.68-2.22-5.62-5.7-5.62a5.68,5.68,0,0,0-6,5.62Z"/><path class="cls-1" d="M955.51,648.1h-8l-8.93-26.42h7.52l5.5,18h.1l5.5-18h7.12Z"/><path class="cls-1" d="M971.21,636.65c.2,4.6,2.42,6.69,6.41,6.69,2.87,0,5.2-1.78,5.65-3.42h6.31c-2,6.24-6.31,8.89-12.22,8.89-8.22,0-13.32-5.72-13.32-13.9,0-7.92,5.4-13.95,13.32-13.95,8.89,0,13.18,7.56,12.68,15.69Zm11.66-4.6c-.66-3.68-2.22-5.62-5.71-5.62a5.68,5.68,0,0,0-5.95,5.62Z"/><path class="cls-1" d="M993.27,621.68h6.81v3.67h.15a9.29,9.29,0,0,1,8-4.39c7.62,0,9.54,4.34,9.54,10.89V648.1h-7.17V633.17c0-4.34-1.26-6.49-4.59-6.49-3.89,0-5.56,2.2-5.56,7.57V648.1h-7.16Z"/><path class="cls-1" d="M1031.28,621.68h5.25v4.85h-5.25v13.08c0,2.46.6,3.07,3,3.07a11.18,11.18,0,0,0,2.22-.2v5.67a27.77,27.77,0,0,1-4.19.25c-4.39,0-8.23-1-8.23-6.28V626.53h-4.34v-4.85h4.34v-7.93h7.17Z"/><path class="cls-1" d="M177.43,513.8H149.36v-26h86.95v26H208.26v75.39H177.43Z"/><path class="cls-1" d="M241.1,487.81h84.41v26H272v12.63h53.55v24.14H272v12.64h53.57v26H241.1Z"/><path class="cls-1" d="M330.71,487.81h50.63c33.37,0,45.17,25,45.17,50.54,0,31.1-16.27,50.84-51.2,50.84h-44.6Zm30.85,75.4h12.06c19.22,0,22-15.77,22-25.29,0-6.38-2-24.12-24.27-24.12h-9.82Z"/><path class="cls-1" d="M470.84,550.12l-9.41-15.8-9.18,15.8H429.64l21.46-31.94-20.66-30.56h22.61l8.38,15.1,8.61-15.1h22.61L472,518.18l21.46,31.94Z"/><text class="cls-2" transform="translate(506.27 575.12) scale(0.99 1)">ElGuereo</text></g></svg>