<svg id="Capa_1" data-name="Capa 1" xmlns="http://www.w3.org/2000/svg" viewBox="0 0 1200 1200"><defs><style>.cls-1{fill:none;stroke:#1d1d1b;stroke-miterlimit:10;stroke-width:13px;}</style></defs><path class="cls-1" d="M718.27,597H628.74a138,138,0,1,0-57.48,0H481.73a142,142,0,0,0,0,284H718.27a142,142,0,0,0,0-284ZM651,411a16,16,0,1,1-16,16A16,16,0,0,1,651,411ZM539,443a16,16,0,1,1,16-16A16,16,0,0,1,539,443Z"/><circle class="cls-1" cx="539" cy="427" r="16"/><circle class="cls-1" cx="651" cy="427" r="16"/><circle class="cls-1" cx="539" cy="427" r="16"/><circle class="cls-1" cx="651" cy="427" r="16"/><path class="cls-1" d="M539,515s48,56,96,0"/></svg>